PathFileType	4	(X/Y/Z)	C:\Users\86182\Documents\cortex\Trimmed_M4_L15.trc
DataRate	CameraRate	NumFrames	NumMarkers	Units	OrigDataRate	OrigDataStartFrame	OrigNumFrames
100.00	100.00	       154	2	mm	100.00	181	       901
Frame#	Time	gripper			box			
		X1	Y1	Z1	X2	Y2	Z2	

181	1.800	275.23538	149.85861	235.82709	278.35773	146.39978	100.64977	
182	1.810	275.37927	149.85548	236.22403	278.37473	146.41695	101.10689	
183	1.820	275.51987	149.85570	236.62823	278.39267	146.43576	101.56782	
184	1.830	275.62128	149.86429	237.05176	278.41095	146.45593	102.03006	
185	1.840	275.65140	149.88606	237.50540	278.42566	146.47777	102.49231	
186	1.850	275.60620	149.92029	237.98795	278.43054	146.50259	102.95203	
187	1.860	275.51147	149.96043	238.48489	278.42126	146.53125	103.40552	
188	1.870	275.39914	149.99973	238.97987	278.39777	146.56233	103.85029	
189	1.880	275.29044	150.03540	239.46246	278.36337	146.59261	104.28656	
190	1.890	275.19547	150.06740	239.92801	278.32272	146.62004	104.71667	
191	1.900	275.11731	150.09544	240.37617	278.28061	146.64517	105.14302	
192	1.910	275.05484	150.11771	240.80952	278.24011	146.66893	105.56580	
193	1.920	275.00604	150.13258	241.23160	278.20169	146.69052	105.98338	
194	1.930	274.96954	150.14029	241.64630	278.16565	146.70816	106.39523	
195	1.940	274.94409	150.14198	242.05833	278.13492	146.72049	106.80450	
196	1.950	274.92682	150.13792	242.47151	278.11392	146.72765	107.21683	
197	1.960	274.91458	150.12724	242.88744	278.10461	146.73155	107.63676	
198	1.970	274.90610	150.11000	243.30765	278.10507	146.73500	108.06470	
199	1.980	274.90146	150.08855	243.73503	278.11240	146.73933	108.49767	
200	1.990	274.89923	150.06656	244.17133	278.12607	146.74356	108.93303	
201	2.000	274.89636	150.04630	244.61481	278.14700	146.74611	109.37063	
202	2.010	274.89185	150.02725	245.06178	278.17468	146.74699	109.81108	
203	2.020	274.88803	150.00800	245.50908	278.20621	146.74725	110.25350	
204	2.030	274.88632	149.98849	245.95483	278.23727	146.74706	110.69465	
205	2.040	274.88379	149.97006	246.39819	278.26376	146.74530	111.12987	
206	2.050	274.87585	149.95361	246.83795	278.28378	146.74113	111.55659	
207	2.060	274.86011	149.93861	247.27171	278.29767	146.73518	111.97711	
208	2.070	274.83667	149.92390	247.69807	278.30597	146.72957	112.39558	
209	2.080	274.80722	149.90982	248.11903	278.30667	146.72633	112.81226	
210	2.090	274.77454	149.89890	248.53752	278.29617	146.72560	113.22315	
211	2.100	274.74173	149.89351	248.95369	278.27368	146.72522	113.62572	
212	2.110	274.71136	149.89322	249.36560	278.24368	146.72292	114.02251	
213	2.120	274.68570	149.89563	249.77271	278.21274	146.71837	114.41960	
214	2.130	274.66779	149.89897	250.17720	278.18509	146.71301	114.82280	
215	2.140	274.65958	149.90257	250.58253	278.16205	146.70824	115.23427	
216	2.150	274.65988	149.90625	250.99179	278.14365	146.70465	115.65167	
217	2.160	274.66498	149.91043	251.40646	278.13028	146.70247	116.07101	
218	2.170	274.67120	149.91583	251.82654	278.12277	146.70161	116.49145	
219	2.180	274.67746	149.92255	252.25189	278.12210	146.70221	116.91656	
220	2.190	274.68631	149.92987	252.68303	278.12894	146.70515	117.34959	
221	2.200	274.70071	149.93687	253.12025	278.14258	146.71159	117.78813	
222	2.210	274.71930	149.94278	253.56219	278.16000	146.72159	118.22589	
223	2.220	274.73700	149.94748	254.00587	278.17773	146.73390	118.65931	
224	2.230	274.75015	149.95152	254.44873	278.19412	146.74747	119.09023	
225	2.240	274.75900	149.95580	254.88994	278.20837	146.76201	119.52208	
226	2.250	274.76511	149.96124	255.32922	278.21860	146.77704	119.95537	
227	2.260	274.76855	149.96854	255.76497	278.22198	146.79117	120.38760	
228	2.270	274.76779	149.97783	256.19458	278.21655	146.80302	120.81621	
229	2.280	274.76202	149.98889	256.61688	278.20203	146.81210	121.24058	
230	2.290	274.75314	150.00116	257.03351	278.17987	146.81816	121.66228	
231	2.300	274.74466	150.01309	257.44754	278.15277	146.82045	122.08359	
232	2.310	274.73883	150.02254	257.86102	278.12341	146.81799	122.50489	
233	2.320	274.73566	150.02859	258.27417	278.09296	146.81032	122.92429	
234	2.330	274.73373	150.03259	258.68719	278.06165	146.79819	123.34046	
235	2.340	274.73178	150.03665	259.10168	278.03067	146.78389	123.75556	
236	2.350	274.73080	150.04175	259.51965	278.00339	146.77066	124.17397	
237	2.360	274.73413	150.04759	259.94214	277.98480	146.76042	124.59896	
238	2.370	274.74423	150.05357	260.36896	277.97748	146.75249	125.03086	
239	2.380	274.76059	150.05963	260.79926	277.97952	146.74529	125.46787	
240	2.390	274.78055	150.06641	261.23193	277.98743	146.73888	125.90790	
241	2.400	274.80139	150.07425	261.66669	277.99924	146.73488	126.35047	
242	2.410	274.82098	150.08252	262.10388	278.01413	146.73389	126.79647	
243	2.420	274.83786	150.09039	262.54340	278.03055	146.73474	127.24538	
244	2.430	274.85092	150.09808	262.98450	278.04431	146.73686	127.69378	
245	2.440	274.85895	150.10684	263.42609	278.04965	146.74165	128.13779	
246	2.450	274.86212	150.11768	263.86652	278.04205	146.75116	128.57672	
247	2.460	274.86249	150.13040	264.30350	278.02014	146.76526	129.01270	
248	2.470	274.86188	150.14383	264.73505	277.98560	146.78104	129.44666	
249	2.480	274.85956	150.15671	265.16034	277.94177	146.79520	129.87724	
250	2.490	274.85281	150.16862	265.57944	277.89185	146.80655	130.30267	
251	2.500	274.83960	150.17984	265.99451	277.83813	146.81548	130.72307	
252	2.510	274.82028	150.18999	266.40881	277.78232	146.82178	131.14099	
253	2.520	274.79736	150.19757	266.82419	277.72693	146.82446	131.55942	
254	2.530	274.77319	150.20103	267.24039	277.67581	146.82343	131.97952	
255	2.540	274.74927	150.19966	267.65723	277.63214	146.82051	132.40047	
256	2.550	274.72665	150.19287	268.07565	277.59698	146.81781	132.82047	
257	2.560	274.70667	150.18024	268.49680	277.57053	146.81537	133.23895	
258	2.570	274.69080	150.16275	268.92136	277.55487	146.81160	133.65787	
259	2.580	274.68002	150.14290	269.35001	277.55313	146.80537	134.07999	
260	2.590	274.67395	150.12341	269.78284	277.56543	146.79695	134.50659	
261	2.600	274.67160	150.10649	270.21921	277.58765	146.78802	134.93677	
262	2.610	274.67267	150.09373	270.65894	277.61472	146.78130	135.36920	
263	2.620	274.67569	150.08667	271.10236	277.64279	146.77896	135.80420	
264	2.630	274.67642	150.08707	271.54877	277.66815	146.78140	136.24240	
265	2.640	274.67056	150.09636	271.99646	277.68799	146.78773	136.68317	
266	2.650	274.65585	150.11417	272.44391	277.70132	146.79683	137.12482	
267	2.660	274.63144	150.13815	272.88971	277.70779	146.80763	137.56564	
268	2.670	274.59698	150.16539	273.33240	277.70660	146.81996	138.00385	
269	2.680	274.55478	150.19351	273.77191	277.69794	146.83475	138.43863	
270	2.690	274.50970	150.22066	274.20880	277.68405	146.85249	138.87125	
271	2.700	274.46588	150.24472	274.64276	277.66718	146.87216	139.30331	
272	2.710	274.42419	150.26355	275.07343	277.64728	146.89240	139.73425	
273	2.720	274.38443	150.27652	275.50125	277.62292	146.91316	140.16235	
274	2.730	274.34662	150.28448	275.92688	277.59283	146.93547	140.58852	
275	2.740	274.31039	150.28798	276.35031	277.55661	146.96017	141.01569	
276	2.750	274.27557	150.28743	276.77197	277.51645	146.98694	141.44507	
277	2.760	274.24353	150.28450	277.19330	277.47757	147.01392	141.87503	
278	2.770	274.21671	150.28151	277.61594	277.44736	147.03790	142.30350	
279	2.780	274.19760	150.27985	278.04062	277.43280	147.05536	142.72931	
280	2.790	274.18869	150.27945	278.46646	277.43719	147.06389	143.15216	
281	2.800	274.19189	150.27942	278.89139	277.45911	147.06294	143.57275	
282	2.810	274.20737	150.27893	279.31400	277.49478	147.05402	143.99200	
283	2.820	274.23282	150.27792	279.73514	277.54025	147.04039	144.40970	
284	2.830	274.26422	150.27658	280.15674	277.59091	147.02556	144.82504	
285	2.840	274.29721	150.27443	280.57971	277.64139	147.01201	145.23987	
286	2.850	274.32819	150.27071	281.00378	277.68716	147.00183	145.65807	
287	2.860	274.35529	150.26581	281.42896	277.72513	146.99731	146.08127	
288	2.870	274.37805	150.26160	281.85571	277.75259	146.99937	146.50766	
289	2.880	274.39630	150.26001	282.28384	277.76761	147.00656	146.93457	
290	2.890	274.41000	150.26160	282.71164	277.77072	147.01695	147.36044	
291	2.900	274.42004	150.26552	283.13666	277.76437	147.02946	147.78427	
292	2.910	274.42813	150.27112	283.55731	277.75073	147.04318	148.20578	
293	2.920	274.43506	150.27870	283.97388	277.73029	147.05750	148.62595	
294	2.930	274.43985	150.28891	284.38812	277.70233	147.07333	149.04599	
295	2.940	274.44107	150.30147	284.80133	277.66653	147.09248	149.46574	
296	2.950	274.43866	150.31454	285.21341	277.62421	147.11514	149.88477	
297	2.960	274.43448	150.32544	285.62439	277.57898	147.13889	150.30341	
298	2.970	274.43045	150.33255	286.03546	277.53598	147.16052	150.72238	
299	2.980	274.42676	150.33693	286.44757	277.49893	147.17836	151.14175	
300	2.990	274.42316	150.34113	286.85977	277.46768	147.19221	151.56082	
301	3.000	274.42062	150.34644	287.26923	277.44034	147.20230	151.97760	
302	3.010	274.42123	150.35214	287.67255	277.41733	147.20802	152.38910	
303	3.020	274.42722	150.35689	288.06754	277.40231	147.20827	152.79245	
304	3.030	274.43942	150.36032	288.45428	277.39844	147.20256	153.18689	
305	3.040	274.45587	150.36314	288.83331	277.40521	147.19193	153.57233	
306	3.050	274.47308	150.36621	289.20230	277.41998	147.17931	153.94632	
307	3.060	274.48911	150.36951	289.55646	277.43997	147.16879	154.30374	
308	3.070	274.50430	150.37201	289.89261	277.46298	147.16336	154.63992	
309	3.080	274.52066	150.37291	290.21136	277.48740	147.16293	154.95358	
310	3.090	274.54044	150.37274	290.51453	277.51227	147.16539	155.24698	
311	3.100	274.56564	150.37349	290.80170	277.53714	147.16895	155.52332	
312	3.110	274.59659	150.37735	291.07056	277.56140	147.17313	155.78366	
313	3.120	274.62982	150.38550	291.31870	277.58344	147.17841	156.02710	
314	3.130	274.65887	150.39708	291.54410	277.60007	147.18620	156.25232	
315	3.140	274.67789	150.40961	291.74487	277.60696	147.19872	156.45831	
316	3.150	274.68417	150.42044	291.91949	277.60080	147.21747	156.64374	
317	3.160	274.67786	150.42830	292.06720	277.58218	147.24150	156.80618	
318	3.170	274.66144	150.43318	292.18893	277.55606	147.26750	156.94284	
319	3.180	274.63947	150.43588	292.28656	277.52896	147.29214	157.05287	
320	3.190	274.61731	150.43741	292.36200	277.50623	147.31378	157.13885	
321	3.200	274.59921	150.43851	292.41748	277.49051	147.33208	157.20570	
322	3.210	274.58646	150.43924	292.45596	277.48193	147.34653	157.25827	
323	3.220	274.57797	150.43925	292.48093	277.47974	147.35622	157.29953	
324	3.230	274.57220	150.43845	292.49567	277.48306	147.36047	157.33063	
325	3.240	274.56857	150.43710	292.50293	277.49081	147.35965	157.35211	
326	3.250	274.56686	150.43558	292.50519	277.50134	147.35501	157.36505	
327	3.260	274.56677	150.43417	292.50433	277.51294	147.34822	157.37115	
328	3.270	274.56790	150.43300	292.50189	277.52383	147.34059	157.37247	
329	3.280	274.56985	150.43211	292.49893	277.53238	147.33264	157.37094	
330	3.290	274.57208	150.43153	292.49619	277.53760	147.32440	157.36804	
331	3.300	274.57428	150.43124	292.49405	277.53998	147.31613	157.36481	
332	3.310	274.57623	150.43123	292.49261	277.54147	147.30881	157.36172	
333	3.320	274.57788	150.43141	292.49188	277.54474	147.30370	157.35892	
334	3.330	274.57919	150.43169	292.49173	277.55188	147.30168	157.35626	
